<?xml version="1.0" encoding="utf-8"?>
<!-- Generator: Adobe Illustrator 24.1.3, SVG Export Plug-In . SVG Version: 6.00 Build 0)  -->
<svg version="1.1" id="emoji" xmlns="http://www.w3.org/2000/svg" xmlns:xlink="http://www.w3.org/1999/xlink" x="0px" y="0px"
	 viewBox="0 0 72 72" style="enable-background:new 0 0 72 72;" xml:space="preserve">
<style type="text/css">
	.st0{fill:#FCEA2B;}
	.st1{fill:none;stroke:#000000;stroke-width:2;stroke-linecap:round;stroke-linejoin:round;}
</style>
<g id="skin_1_">
	<path class="st0" d="M15.9,40.2c-2-0.3-3.8,1.1-4.1,3c-0.3,2,1.1,3.8,3,4.1c0.3,0,0.6,0.1,0.9,0L35,47.6l4.4,0l-13.2-0.2
		c-2-0.3-3.8,1.1-4.1,3c-0.3,2,1.1,3.8,3,4.1c0.3,0,0.6,0.1,0.9,0l13.2,0.2l10.2-0.1c8.4-0.4,13.8-7.9,13.4-16.3
		c-0.3-4.9-2.3-9.4-5.7-12.9c-3.1-3-11.7-10.2-11.7-10.2c-2.2-1.5-5.6-0.3-4.7,0.8l4.7,10l-5.5,0l5.5,0l-5.5,0l-22.1,0
		c-2-0.3-3.8,1.1-4.1,3s1.1,3.8,3,4.1c0.3,0,0.6,0.1,0.9,0l7.1,0.1l10.8,0.2L13.2,33c-2-0.3-3.8,1.1-4.1,3c-0.3,2,1.1,3.8,3,4.1
		c0.3,0,0.6,0.1,0.9,0l24.3,0.2"/>
</g>
<g id="line_1_">
	<path class="st1" d="M15.9,40.2c-2-0.3-3.8,1.1-4.1,3s1.1,3.8,3,4.1c0.3,0,0.6,0.1,0.9,0L35,47.6l1,0l-9.8-0.2
		c-2-0.3-3.8,1.1-4.1,3c-0.3,2,1.1,3.8,3,4.1c0.3,0,0.6,0.1,0.9,0l13.2,0.2l10.2-0.1c8.4-0.4,13.8-7.9,13.4-16.3
		c-0.3-4.9-2.3-9.4-5.7-12.9c-3.1-3-11.7-10.2-11.7-10.2c-2.2-1.5-5.6-0.3-4.7,0.8l4.7,10l-5.5,0l5.5,0l-5.5,0l-22.1,0
		c-2-0.3-3.8,1.1-4.1,3s1.1,3.8,3,4.1c0.3,0,0.6,0.1,0.9,0l7.1,0.1l10.8,0.2L13.2,33c-2-0.3-3.8,1.1-4.1,3c-0.3,2,1.1,3.8,3,4.1
		c0.3,0,0.6,0.1,0.9,0l20.7,0.2"/>
</g>
</svg>
