<?xml version="1.0" encoding="utf-8"?>
<!-- Generator: Adobe Illustrator 24.1.3, SVG Export Plug-In . SVG Version: 6.00 Build 0)  -->
<svg version="1.1" id="emoji" xmlns="http://www.w3.org/2000/svg" xmlns:xlink="http://www.w3.org/1999/xlink" x="0px" y="0px"
	 viewBox="0 0 72 72" style="enable-background:new 0 0 72 72;" xml:space="preserve">
<style type="text/css">
	.st0{fill:#FCEA2B;}
	.st1{fill:none;stroke:#000000;stroke-width:2;stroke-linecap:round;stroke-linejoin:round;}
</style>
<g id="skin_1_">
	<path class="st0" d="M16.1,40.6c-1.9-0.3-3.7,1-4,3c-0.3,1.9,1,3.7,3,4c0.3,0,0.6,0,0.9,0l19,0.3l4.3,0l-13-0.2c-1.9-0.3-3.7,1-4,3
		c-0.3,1.9,1,3.7,3,4c0.3,0,0.6,0,0.9,0l13,0.2l10.1-0.1C57.7,54.3,63,47,62.6,38.7c-0.3-4.8-2.3-9.3-5.7-12.7
		c-3.1-2.9-11.5-10.1-11.5-10.1c-2.2-1.5-5.5-0.3-4.7,0.8l4.7,9.9l-5.4,0l5.4,0l-5.4,0l-21.9,0c-1.9-0.3-3.7,1-4,3s1,3.7,3,4
		c0.3,0,0.6,0,0.9,0l7,0.1l10.6,0.2l-22.2-0.4c-1.9-0.3-3.7,1-4,3c-0.3,1.9,1,3.7,3,4c0.3,0,0.6,0,0.9,0l24,0.2"/>
</g>
<g id="line_1_">
	<path class="st1" d="M16.1,40.6c-1.9-0.3-3.7,1-4,3c-0.3,1.9,1,3.7,3,4c0.3,0,0.6,0,0.9,0l19,0.3l1,0l-9.6-0.2c-1.9-0.3-3.7,1-4,3
		c-0.3,1.9,1,3.7,3,4c0.3,0,0.6,0,0.9,0l13,0.2l10.1-0.1C57.7,54.3,63,47,62.6,38.7c-0.3-4.8-2.3-9.3-5.7-12.7
		c-3.1-2.9-11.5-10.1-11.5-10.1c-2.2-1.5-5.5-0.3-4.7,0.8l4.7,9.9l-5.4,0l5.4,0l-5.4,0l-21.9,0c-1.9-0.3-3.7,1-4,3s1,3.7,3,4
		c0.3,0,0.6,0,0.9,0l7,0.1l10.6,0.2l-22.2-0.4c-1.9-0.3-3.7,1-4,3c-0.3,1.9,1,3.7,3,4c0.3,0,0.6,0,0.9,0l20.5,0.2"/>
</g>
</svg>
