<?xml version="1.0" encoding="utf-8"?>
<!-- Generator: Adobe Illustrator 24.1.3, SVG Export Plug-In . SVG Version: 6.00 Build 0)  -->
<svg version="1.1" id="emoji" xmlns="http://www.w3.org/2000/svg" xmlns:xlink="http://www.w3.org/1999/xlink" x="0px" y="0px"
	 viewBox="0 0 72 72" style="enable-background:new 0 0 72 72;" xml:space="preserve">
<style type="text/css">
	.st0{fill:#FCEA2B;}
	.st1{fill:none;stroke:#000000;stroke-width:2;stroke-linecap:round;stroke-linejoin:round;}
</style>
<g id="skin_1_">
	<path class="st0" d="M12.5,38.3C10.4,38,8.3,39.5,8,41.7c-0.3,2.2,1.2,4.2,3.4,4.5c0.3,0.1,0.7,0.1,1.1,0l21.5,0.3l4.9,0l-14.7-0.2
		c-2.2-0.3-4.2,1.2-4.5,3.4c-0.3,2.2,1.2,4.2,3.4,4.5c0.3,0.1,0.7,0.1,1.1,0l14.7,0.2l11.4-0.1c9.4-0.5,15.4-8.8,14.9-18.2
		c-0.3-5.4-2.6-10.5-6.4-14.4c-3.5-3.3-13-11.4-13-11.4c-2.4-1.7-6.2-0.4-5.3,0.9l5.3,11.2l-6.1,0l6.1,0l-6.1,0l-24.7,0
		c-2.2-0.3-4.2,1.2-4.5,3.4c-0.3,2.2,1.2,4.2,3.4,4.5c0.3,0.1,0.7,0.1,1.1,0l7.9,0.1l12,0.2L9.5,30.3C7.3,30,5.3,31.5,5,33.6
		c-0.3,2.2,1.2,4.2,3.4,4.5c0.3,0.1,0.7,0.1,1.1,0l27.2,0.2"/>
</g>
<g id="line_1_">
	<path class="st1" d="M13.5,38.3C11.4,38,9.3,39.5,9,41.7s1.2,4.2,3.4,4.5c0.3,0.1,0.7,0.1,1.1,0l21.5,0.3l1.1,0l-10.9-0.2
		c-2.2-0.3-4.2,1.2-4.5,3.4s1.2,4.2,3.4,4.5c0.3,0.1,0.7,0.1,1.1,0l14.7,0.2l11.4-0.1c9.4-0.5,15.4-8.8,14.9-18.2
		c-0.3-5.4-2.6-10.5-6.4-14.4c-3.5-3.3-13-11.4-13-11.4c-2.4-1.7-6.2-0.4-5.3,0.9l5.3,11.2l-6.1,0l6.1,0l-6.1,0l-24.7,0
		c-2.2-0.3-4.2,1.2-4.5,3.4s1.2,4.2,3.4,4.5c0.3,0.1,0.7,0.1,1.1,0l7.9,0.1l12,0.2l-25.1-0.4C8.3,30,6.3,31.5,6,33.6
		c-0.3,2.2,1.2,4.2,3.4,4.5c0.3,0.1,0.7,0.1,1.1,0l23.1,0.2"/>
</g>
</svg>
