<?xml version="1.0" encoding="utf-8"?>
<!-- Generator: Adobe Illustrator 24.1.3, SVG Export Plug-In . SVG Version: 6.00 Build 0)  -->
<svg version="1.1" id="emoji" xmlns="http://www.w3.org/2000/svg" xmlns:xlink="http://www.w3.org/1999/xlink" x="0px" y="0px"
	 viewBox="0 0 72 72" style="enable-background:new 0 0 72 72;" xml:space="preserve">
<style type="text/css">
	.st0{fill:#FCEA2B;}
	.st1{fill:none;}
	.st2{fill:none;stroke:#000000;stroke-width:2;stroke-linecap:round;stroke-linejoin:round;}
	.st3{fill:none;stroke:#000000;stroke-width:2;stroke-linecap:round;stroke-miterlimit:10;}
</style>
<g id="skin">
	<path class="st0" d="M36.8,49.9c-0.2,2.1-1.9,3.6-4,3.5h-7c-1.9,0.3-3.7-1.1-4-3c-0.3-1.9,1.1-3.7,3-4c0.3,0,0.6,0,0.9,0h7
		C34.9,46.3,36.6,47.9,36.8,49.9z"/>
	<path class="st0" d="M39.6,29.4c-0.2,2.1-1.9,3.6-4,3.5h-15c-1.9,0.3-3.7-1.1-4-3c-0.3-1.9,1.1-3.7,3-4c0.3,0,0.6,0,0.9,0h15
		C37.6,25.8,39.4,27.3,39.6,29.4z"/>
	<path class="st0" d="M39.6,36c-0.2,2.1-1.9,3.6-4,3.5h-15c-1.9,0.3-3.7-1.1-4-3c-0.3-1.9,1.1-3.7,3-4c0.3,0,0.6,0,0.9,0h15
		C37.6,32.3,39.4,33.9,39.6,36z"/>
	<path class="st0" d="M40.8,43.6c-0.2,2.1-1.9,3.6-4,3.5h-15c-1.9,0.3-3.7-1.1-4-3c-0.3-1.9,1.1-3.7,3-4c0.3,0,0.6,0,0.9,0h15
		C38.9,40,40.6,41.5,40.8,43.6z"/>
	<path class="st0" d="M41.8,51.1c-0.2,2.1-1.9,3.6-4,3.5h-15c-1.9,0.3-3.7-1.1-4-3c-0.3-1.9,1.1-3.7,3-4c0.3,0,0.6,0,0.9,0h15
		C39.9,47.5,41.7,49.1,41.8,51.1z"/>
	<path class="st0" d="M17,39.2c-1.9,0.3-0.2-2.8,0.5-6.2c0.4-2.3-3-4.6-1.1-4.8c0.9,0.2-2.5-3.7,7.8-3.2"/>
	<line class="st1" x1="20.7" y1="26.9" x2="21.3" y2="27"/>
	<path class="st0" d="M36.8,55.4c8.9-1.1,19.6-10.8,19.5-19.5c0-9.7-8.7-19.4-19.1-19.4l0,0l-10.5,0.9c-5.2,0-4.1,14.1-4.1,16.3
		l7.5,21.3"/>
</g>
<g id="line">
	<path class="st2" d="M35.9,27.5h-2.3c-1.1,0-2.2,1.8-2.4,4l-0.1,1c-0.2,2.2-1.9,4-3.8,4s-3.3-1.8-3.3-4v-10c0-2.2,1.6-4.1,3.8-4.2
		l11.2-0.7"/>
	<path class="st2" d="M38.9,33.2c-1.5-1.6-2.5-3.6-3-5.8"/>
	<path class="st3" d="M40.4,54.4c9-1.2,15.7-9,15.6-18.1c0-10.1-7.2-18.8-17.7-18.8"/>
	<line class="st2" x1="40.4" y1="54.4" x2="36.8" y2="54.4"/>
	<path class="st2" d="M33.9,50.9c-0.2,2.1-1.9,3.6-4,3.5h-7c-1.9,0.3-3.7-1.1-4-3c-0.3-1.9,1.1-3.7,3-4c0.3,0,0.6,0,0.9,0h7
		C31.9,47.3,33.7,48.8,33.9,50.9z"/>
	<path class="st2" d="M32.7,42.5c1.2,3.3-1.9,5-4,4.9h-7c-1.9,0.3-3.7-1.1-4-3c-0.3-1.9,1.1-3.7,3-4c0.3,0,0.6,0,0.9,0"/>
	<path class="st2" d="M25.4,40.3H20c-1.9,0.3-3.7-1.1-4-3c-0.3-1.9,1.1-3.7,3-4c0.3,0,0.6,0,0.9,0"/>
	<path class="st2" d="M20,33.2c-1.9,0.3-3.7-1.1-4-3c-0.3-1.9,1.1-3.7,3-4c0.3,0,0.6,0,0.9,0"/>
</g>
</svg>
