<?xml version="1.0" encoding="utf-8"?>
<!-- Generator: Adobe Illustrator 24.1.3, SVG Export Plug-In . SVG Version: 6.00 Build 0)  -->
<svg version="1.1" id="emoji" xmlns="http://www.w3.org/2000/svg" xmlns:xlink="http://www.w3.org/1999/xlink" x="0px" y="0px"
	 viewBox="0 0 72 72" style="enable-background:new 0 0 72 72;" xml:space="preserve">
<style type="text/css">
	.st0{fill:#FCEA2B;stroke:#FCEA2B;stroke-width:2;}
	.st1{fill:none;stroke:#000000;stroke-width:2;stroke-linecap:round;stroke-linejoin:round;}
	.st2{fill:none;stroke:#000000;stroke-width:2;stroke-linecap:round;stroke-miterlimit:10;}
</style>
<g id="skin">
	<path class="st0" d="M37.1,19.7l-29-1.9L6,19.1l0.2,4L11,25l17.4,2.4l2.1,1.9l-2.3,2.7L7,34.4l-1.7,2.2l0.1,2.1l3.2,2l24.8-2.9v2.6
		c-5.8,2-2.2,6.4,1.1,7.1c-2.3,4.4-0.6,4.9,2.2,6.6l8.1,0.2c2.8-0.3,4.7-0.5,6.9-0.9l5.3-1.7l6.9-6l2.7-8.3l-0.9-7.6l-4.6-6.9
		l-5.3-3.5C49.1,18.2,43.6,18.3,37.1,19.7L37.1,19.7z"/>
</g>
<g id="line">
	<path class="st1" d="M31,19.4L8.9,17.6c-5,0.3-5,6.8,0,7.2l17.4,2.4c2.2,0.3,4,1.3,4,2.2s-1.8,1.8-4,2.1L8.9,33.8
		c-5.3,0.8-4.3,7.4,0,7l21-2.5"/>
	<path class="st1" d="M50,18.4c9.9,0,16.9,8,16.9,17.9"/>
	<path class="st1" d="M47.2,28.3h-2.3c-1.1,0-2.2,1.8-2.4,4l-0.1,1c-0.2,2.2-1.9,4-3.8,4s-3.3-1.8-3.3-4v-10c0-2.2,1.6-4.1,3.8-4.2
		l11.2-0.7"/>
	<path class="st1" d="M50.3,34.1c-1.5-1.6-2.5-3.6-3-5.8"/>
	<path class="st2" d="M52,53.5c8.6-1.1,15-8.5,14.9-17.2c0-9.7-6.8-17.9-16.9-17.9"/>
	<path class="st1" d="M49.6,40.3c1.3,0,2.4,0.7,3,1.8c0.6,1.1,0.6,2.4,0,3.5c-0.6,1.1-1.8,1.8-3,1.8h-16c-1.3,0-2.4-0.7-3-1.8
		c-0.6-1.1-0.6-2.4,0-3.5c0.6-1.1,1.8-1.8,3-1.8H49.6z"/>
	<path class="st1" d="M44.9,47.3c1.3,0,2.4,0.7,3.1,1.8c0.6,1.1,0.6,2.4,0,3.5c-0.6,1.1-1.8,1.8-3.1,1.8h-7.9
		c-1.3,0-2.4-0.7-3.1-1.8c-0.6-1.1-0.6-2.4,0-3.5c0.6-1.1,1.8-1.8,3.1-1.8H44.9z"/>
</g>
</svg>
